<mxfile host="app.diagrams.net" agent="Mozilla/5.0 (Windows NT 10.0; Win64; x64) AppleWebKit/537.36 (KHTML, like Gecko) Chrome/131.0.0.0 Safari/537.36 Edg/131.0.0.0" version="24.9.1">
  <diagram name="Page-1" id="foAnS2XsAx307ZuAATzG">
    <mxGraphModel dx="2321" dy="820" grid="1" gridSize="10" guides="1" tooltips="1" connect="1" arrows="1" fold="1" page="1" pageScale="1" pageWidth="850" pageHeight="1100" math="0" shadow="0">
      <root>
        <mxCell id="0" />
        <mxCell id="1" parent="0" />
        <mxCell id="5liXhGSxJttjLOgDEZxe-3" value="" style="edgeStyle=orthogonalEdgeStyle;rounded=0;orthogonalLoop=1;jettySize=auto;html=1;" edge="1" parent="1" source="5liXhGSxJttjLOgDEZxe-1" target="5liXhGSxJttjLOgDEZxe-2">
          <mxGeometry relative="1" as="geometry" />
        </mxCell>
        <mxCell id="5liXhGSxJttjLOgDEZxe-1" value="Start" style="strokeWidth=2;html=1;shape=mxgraph.flowchart.start_1;whiteSpace=wrap;" vertex="1" parent="1">
          <mxGeometry x="300" y="200" width="100" height="60" as="geometry" />
        </mxCell>
        <mxCell id="5liXhGSxJttjLOgDEZxe-6" value="" style="edgeStyle=orthogonalEdgeStyle;rounded=0;orthogonalLoop=1;jettySize=auto;html=1;" edge="1" parent="1" source="5liXhGSxJttjLOgDEZxe-2" target="5liXhGSxJttjLOgDEZxe-5">
          <mxGeometry relative="1" as="geometry" />
        </mxCell>
        <mxCell id="5liXhGSxJttjLOgDEZxe-2" value="Welcome Message + options" style="shape=parallelogram;html=1;strokeWidth=2;perimeter=parallelogramPerimeter;whiteSpace=wrap;rounded=1;arcSize=12;size=0.23;" vertex="1" parent="1">
          <mxGeometry x="300" y="300" width="100" height="60" as="geometry" />
        </mxCell>
        <mxCell id="5liXhGSxJttjLOgDEZxe-8" value="" style="edgeStyle=orthogonalEdgeStyle;rounded=0;orthogonalLoop=1;jettySize=auto;html=1;entryX=0.5;entryY=0;entryDx=0;entryDy=0;" edge="1" parent="1" source="5liXhGSxJttjLOgDEZxe-5" target="5liXhGSxJttjLOgDEZxe-7">
          <mxGeometry relative="1" as="geometry" />
        </mxCell>
        <mxCell id="5liXhGSxJttjLOgDEZxe-5" value="Add or Edit or Remove or View or Save&amp;nbsp;&lt;div&gt;or Quit&lt;/div&gt;" style="shape=parallelogram;html=1;strokeWidth=2;perimeter=parallelogramPerimeter;whiteSpace=wrap;rounded=1;arcSize=12;size=0.23;" vertex="1" parent="1">
          <mxGeometry x="207.5" y="410" width="285" height="90" as="geometry" />
        </mxCell>
        <mxCell id="5liXhGSxJttjLOgDEZxe-10" value="" style="edgeStyle=orthogonalEdgeStyle;rounded=0;orthogonalLoop=1;jettySize=auto;html=1;" edge="1" parent="1" source="5liXhGSxJttjLOgDEZxe-7" target="5liXhGSxJttjLOgDEZxe-9">
          <mxGeometry relative="1" as="geometry" />
        </mxCell>
        <mxCell id="5liXhGSxJttjLOgDEZxe-11" value="Add" style="edgeLabel;html=1;align=center;verticalAlign=middle;resizable=0;points=[];" vertex="1" connectable="0" parent="5liXhGSxJttjLOgDEZxe-10">
          <mxGeometry x="-0.2269" y="-3" relative="1" as="geometry">
            <mxPoint as="offset" />
          </mxGeometry>
        </mxCell>
        <mxCell id="5liXhGSxJttjLOgDEZxe-17" value="remove" style="edgeStyle=orthogonalEdgeStyle;rounded=0;orthogonalLoop=1;jettySize=auto;html=1;" edge="1" parent="1" source="5liXhGSxJttjLOgDEZxe-7" target="5liXhGSxJttjLOgDEZxe-16">
          <mxGeometry relative="1" as="geometry" />
        </mxCell>
        <mxCell id="5liXhGSxJttjLOgDEZxe-23" value="" style="edgeStyle=orthogonalEdgeStyle;rounded=0;orthogonalLoop=1;jettySize=auto;html=1;" edge="1" parent="1" source="5liXhGSxJttjLOgDEZxe-7" target="5liXhGSxJttjLOgDEZxe-27">
          <mxGeometry relative="1" as="geometry">
            <mxPoint x="540" y="620" as="targetPoint" />
          </mxGeometry>
        </mxCell>
        <mxCell id="5liXhGSxJttjLOgDEZxe-24" value="view" style="edgeLabel;html=1;align=center;verticalAlign=middle;resizable=0;points=[];" vertex="1" connectable="0" parent="5liXhGSxJttjLOgDEZxe-23">
          <mxGeometry x="-0.1363" y="-1" relative="1" as="geometry">
            <mxPoint x="-1" as="offset" />
          </mxGeometry>
        </mxCell>
        <mxCell id="5liXhGSxJttjLOgDEZxe-48" style="edgeStyle=orthogonalEdgeStyle;rounded=0;orthogonalLoop=1;jettySize=auto;html=1;exitX=0;exitY=1;exitDx=0;exitDy=0;entryX=0.547;entryY=-0.003;entryDx=0;entryDy=0;entryPerimeter=0;" edge="1" parent="1" source="5liXhGSxJttjLOgDEZxe-7" target="5liXhGSxJttjLOgDEZxe-50">
          <mxGeometry relative="1" as="geometry">
            <mxPoint x="220" y="1020" as="targetPoint" />
          </mxGeometry>
        </mxCell>
        <mxCell id="5liXhGSxJttjLOgDEZxe-49" value="Edit" style="edgeLabel;html=1;align=center;verticalAlign=middle;resizable=0;points=[];" vertex="1" connectable="0" parent="5liXhGSxJttjLOgDEZxe-48">
          <mxGeometry x="0.2347" y="1" relative="1" as="geometry">
            <mxPoint as="offset" />
          </mxGeometry>
        </mxCell>
        <mxCell id="5liXhGSxJttjLOgDEZxe-91" style="edgeStyle=orthogonalEdgeStyle;rounded=0;orthogonalLoop=1;jettySize=auto;html=1;exitX=1;exitY=0;exitDx=0;exitDy=0;entryX=0;entryY=0.5;entryDx=0;entryDy=0;" edge="1" parent="1" source="5liXhGSxJttjLOgDEZxe-7" target="5liXhGSxJttjLOgDEZxe-47">
          <mxGeometry relative="1" as="geometry" />
        </mxCell>
        <mxCell id="5liXhGSxJttjLOgDEZxe-92" value="Save" style="edgeLabel;html=1;align=center;verticalAlign=middle;resizable=0;points=[];" vertex="1" connectable="0" parent="5liXhGSxJttjLOgDEZxe-91">
          <mxGeometry x="0.0601" y="5" relative="1" as="geometry">
            <mxPoint y="1" as="offset" />
          </mxGeometry>
        </mxCell>
        <mxCell id="5liXhGSxJttjLOgDEZxe-93" style="edgeStyle=orthogonalEdgeStyle;rounded=0;orthogonalLoop=1;jettySize=auto;html=1;exitX=1;exitY=1;exitDx=0;exitDy=0;entryX=0.5;entryY=0;entryDx=0;entryDy=0;entryPerimeter=0;" edge="1" parent="1" source="5liXhGSxJttjLOgDEZxe-7" target="5liXhGSxJttjLOgDEZxe-94">
          <mxGeometry relative="1" as="geometry">
            <mxPoint x="550" y="1511.2306565504807" as="targetPoint" />
          </mxGeometry>
        </mxCell>
        <mxCell id="5liXhGSxJttjLOgDEZxe-95" value="q" style="edgeLabel;html=1;align=center;verticalAlign=middle;resizable=0;points=[];" vertex="1" connectable="0" parent="5liXhGSxJttjLOgDEZxe-93">
          <mxGeometry x="-0.0327" y="-2" relative="1" as="geometry">
            <mxPoint as="offset" />
          </mxGeometry>
        </mxCell>
        <mxCell id="5liXhGSxJttjLOgDEZxe-105" style="edgeStyle=orthogonalEdgeStyle;rounded=0;orthogonalLoop=1;jettySize=auto;html=1;exitX=0;exitY=0;exitDx=0;exitDy=0;entryX=0.25;entryY=1;entryDx=0;entryDy=0;fillColor=#f8cecc;strokeColor=#b85450;" edge="1" parent="1" source="5liXhGSxJttjLOgDEZxe-7" target="5liXhGSxJttjLOgDEZxe-5">
          <mxGeometry relative="1" as="geometry" />
        </mxCell>
        <mxCell id="5liXhGSxJttjLOgDEZxe-106" value="&lt;font color=&quot;#ff0000&quot;&gt;Invalid&lt;/font&gt;" style="edgeLabel;html=1;align=center;verticalAlign=middle;resizable=0;points=[];" vertex="1" connectable="0" parent="5liXhGSxJttjLOgDEZxe-105">
          <mxGeometry x="-0.1553" y="-1" relative="1" as="geometry">
            <mxPoint as="offset" />
          </mxGeometry>
        </mxCell>
        <mxCell id="5liXhGSxJttjLOgDEZxe-7" value="options" style="rhombus;whiteSpace=wrap;html=1;strokeWidth=2;rounded=1;arcSize=30;" vertex="1" parent="1">
          <mxGeometry x="310" y="575" width="80" height="80" as="geometry" />
        </mxCell>
        <mxCell id="5liXhGSxJttjLOgDEZxe-15" value="" style="edgeStyle=orthogonalEdgeStyle;rounded=0;orthogonalLoop=1;jettySize=auto;html=1;" edge="1" parent="1" source="5liXhGSxJttjLOgDEZxe-9" target="5liXhGSxJttjLOgDEZxe-12">
          <mxGeometry relative="1" as="geometry" />
        </mxCell>
        <mxCell id="5liXhGSxJttjLOgDEZxe-9" value="Numbers of tasks +&lt;div&gt;Task (Name, Priority, Due Date)&lt;div&gt;&lt;br&gt;&lt;/div&gt;&lt;/div&gt;" style="shape=parallelogram;html=1;strokeWidth=2;perimeter=parallelogramPerimeter;whiteSpace=wrap;rounded=1;arcSize=12;size=0.23;" vertex="1" parent="1">
          <mxGeometry x="-10" y="570" width="240" height="90" as="geometry" />
        </mxCell>
        <mxCell id="5liXhGSxJttjLOgDEZxe-111" style="edgeStyle=orthogonalEdgeStyle;rounded=0;orthogonalLoop=1;jettySize=auto;html=1;entryX=0;entryY=0.5;entryDx=0;entryDy=0;" edge="1" parent="1" source="5liXhGSxJttjLOgDEZxe-12" target="5liXhGSxJttjLOgDEZxe-2">
          <mxGeometry relative="1" as="geometry">
            <mxPoint x="-180" y="330" as="targetPoint" />
            <Array as="points">
              <mxPoint x="-179" y="820" />
              <mxPoint x="-179" y="330" />
            </Array>
          </mxGeometry>
        </mxCell>
        <mxCell id="5liXhGSxJttjLOgDEZxe-12" value="Add Task to All Tasks" style="rounded=1;whiteSpace=wrap;html=1;absoluteArcSize=1;arcSize=14;strokeWidth=2;" vertex="1" parent="1">
          <mxGeometry x="60" y="770" width="100" height="100" as="geometry" />
        </mxCell>
        <mxCell id="5liXhGSxJttjLOgDEZxe-19" value="" style="edgeStyle=orthogonalEdgeStyle;rounded=0;orthogonalLoop=1;jettySize=auto;html=1;" edge="1" parent="1" source="5liXhGSxJttjLOgDEZxe-16" target="5liXhGSxJttjLOgDEZxe-18">
          <mxGeometry relative="1" as="geometry" />
        </mxCell>
        <mxCell id="5liXhGSxJttjLOgDEZxe-16" value="niumber of tasks&lt;div&gt;+ name&lt;/div&gt;" style="shape=parallelogram;perimeter=parallelogramPerimeter;whiteSpace=wrap;html=1;fixedSize=1;strokeWidth=2;rounded=1;arcSize=12;" vertex="1" parent="1">
          <mxGeometry x="290" y="750" width="120" height="60" as="geometry" />
        </mxCell>
        <mxCell id="5liXhGSxJttjLOgDEZxe-20" style="edgeStyle=orthogonalEdgeStyle;rounded=0;orthogonalLoop=1;jettySize=auto;html=1;entryX=0;entryY=0.5;entryDx=0;entryDy=0;exitX=0;exitY=0.5;exitDx=0;exitDy=0;" edge="1" parent="1" source="5liXhGSxJttjLOgDEZxe-18" target="5liXhGSxJttjLOgDEZxe-2">
          <mxGeometry relative="1" as="geometry">
            <mxPoint x="279.92" y="310" as="targetPoint" />
            <mxPoint x="-270.0030769230771" y="955" as="sourcePoint" />
            <Array as="points">
              <mxPoint x="-269" y="960" />
              <mxPoint x="-269" y="330" />
            </Array>
          </mxGeometry>
        </mxCell>
        <mxCell id="5liXhGSxJttjLOgDEZxe-18" value="remove tasks&amp;nbsp;" style="whiteSpace=wrap;html=1;strokeWidth=2;rounded=1;arcSize=12;" vertex="1" parent="1">
          <mxGeometry x="290" y="890" width="120" height="140" as="geometry" />
        </mxCell>
        <mxCell id="5liXhGSxJttjLOgDEZxe-89" style="edgeStyle=orthogonalEdgeStyle;rounded=0;orthogonalLoop=1;jettySize=auto;html=1;entryX=0.5;entryY=0;entryDx=0;entryDy=0;" edge="1" parent="1" source="5liXhGSxJttjLOgDEZxe-27" target="5liXhGSxJttjLOgDEZxe-28">
          <mxGeometry relative="1" as="geometry" />
        </mxCell>
        <mxCell id="5liXhGSxJttjLOgDEZxe-27" value="View tasks sorted by&lt;div&gt;priorities or due date (p or d)&lt;/div&gt;" style="shape=parallelogram;html=1;strokeWidth=2;perimeter=parallelogramPerimeter;whiteSpace=wrap;rounded=1;arcSize=12;size=0.23;" vertex="1" parent="1">
          <mxGeometry x="590" y="570" width="190" height="90" as="geometry" />
        </mxCell>
        <mxCell id="5liXhGSxJttjLOgDEZxe-31" value="p" style="edgeStyle=orthogonalEdgeStyle;rounded=0;orthogonalLoop=1;jettySize=auto;html=1;" edge="1" parent="1" source="5liXhGSxJttjLOgDEZxe-28" target="5liXhGSxJttjLOgDEZxe-30">
          <mxGeometry relative="1" as="geometry" />
        </mxCell>
        <mxCell id="5liXhGSxJttjLOgDEZxe-59" style="edgeStyle=orthogonalEdgeStyle;rounded=0;orthogonalLoop=1;jettySize=auto;html=1;exitX=0;exitY=0.5;exitDx=0;exitDy=0;entryX=0.5;entryY=1;entryDx=0;entryDy=0;fillColor=#f8cecc;strokeColor=#b85450;" edge="1" parent="1" source="5liXhGSxJttjLOgDEZxe-28" target="5liXhGSxJttjLOgDEZxe-27">
          <mxGeometry relative="1" as="geometry">
            <mxPoint x="660" y="1059.9999999999998" as="targetPoint" />
          </mxGeometry>
        </mxCell>
        <mxCell id="5liXhGSxJttjLOgDEZxe-60" value="Invalid" style="edgeLabel;html=1;align=center;verticalAlign=middle;resizable=0;points=[];fontColor=#FF0000;" vertex="1" connectable="0" parent="5liXhGSxJttjLOgDEZxe-59">
          <mxGeometry x="0.073" y="-1" relative="1" as="geometry">
            <mxPoint as="offset" />
          </mxGeometry>
        </mxCell>
        <mxCell id="5liXhGSxJttjLOgDEZxe-61" value="" style="edgeStyle=orthogonalEdgeStyle;rounded=0;orthogonalLoop=1;jettySize=auto;html=1;" edge="1" parent="1" source="5liXhGSxJttjLOgDEZxe-28" target="5liXhGSxJttjLOgDEZxe-34">
          <mxGeometry relative="1" as="geometry" />
        </mxCell>
        <mxCell id="5liXhGSxJttjLOgDEZxe-66" value="d" style="edgeLabel;html=1;align=center;verticalAlign=middle;resizable=0;points=[];" vertex="1" connectable="0" parent="5liXhGSxJttjLOgDEZxe-61">
          <mxGeometry x="-0.6061" y="1" relative="1" as="geometry">
            <mxPoint as="offset" />
          </mxGeometry>
        </mxCell>
        <mxCell id="5liXhGSxJttjLOgDEZxe-28" value="if view" style="rhombus;whiteSpace=wrap;html=1;strokeWidth=2;rounded=1;arcSize=12;" vertex="1" parent="1">
          <mxGeometry x="860" y="810" width="80" height="80" as="geometry" />
        </mxCell>
        <mxCell id="5liXhGSxJttjLOgDEZxe-90" style="edgeStyle=orthogonalEdgeStyle;rounded=0;orthogonalLoop=1;jettySize=auto;html=1;exitX=0.5;exitY=0;exitDx=0;exitDy=0;entryX=1;entryY=0.5;entryDx=0;entryDy=0;" edge="1" parent="1" source="5liXhGSxJttjLOgDEZxe-30" target="5liXhGSxJttjLOgDEZxe-2">
          <mxGeometry relative="1" as="geometry">
            <mxPoint x="1149.7692307692305" y="340" as="targetPoint" />
            <Array as="points">
              <mxPoint x="1150" y="330" />
            </Array>
          </mxGeometry>
        </mxCell>
        <mxCell id="5liXhGSxJttjLOgDEZxe-30" value="sort by priorities&amp;nbsp;" style="whiteSpace=wrap;html=1;strokeWidth=2;rounded=1;arcSize=12;" vertex="1" parent="1">
          <mxGeometry x="1090" y="820" width="120" height="60" as="geometry" />
        </mxCell>
        <mxCell id="5liXhGSxJttjLOgDEZxe-112" style="edgeStyle=orthogonalEdgeStyle;rounded=0;orthogonalLoop=1;jettySize=auto;html=1;exitX=1;exitY=0.5;exitDx=0;exitDy=0;entryX=1;entryY=0.5;entryDx=0;entryDy=0;" edge="1" parent="1" source="5liXhGSxJttjLOgDEZxe-34" target="5liXhGSxJttjLOgDEZxe-2">
          <mxGeometry relative="1" as="geometry">
            <mxPoint x="870" y="360" as="targetPoint" />
            <Array as="points">
              <mxPoint x="1021" y="1025" />
              <mxPoint x="1021" y="330" />
            </Array>
          </mxGeometry>
        </mxCell>
        <mxCell id="5liXhGSxJttjLOgDEZxe-34" value="sort by due date" style="whiteSpace=wrap;html=1;strokeWidth=2;rounded=1;arcSize=12;" vertex="1" parent="1">
          <mxGeometry x="840" y="995" width="120" height="60" as="geometry" />
        </mxCell>
        <mxCell id="5liXhGSxJttjLOgDEZxe-47" value="Create new text file" style="rounded=1;whiteSpace=wrap;html=1;absoluteArcSize=1;arcSize=14;strokeWidth=2;" vertex="1" parent="1">
          <mxGeometry x="635" y="430" width="100" height="100" as="geometry" />
        </mxCell>
        <mxCell id="5liXhGSxJttjLOgDEZxe-52" value="" style="edgeStyle=orthogonalEdgeStyle;rounded=0;orthogonalLoop=1;jettySize=auto;html=1;" edge="1" parent="1" source="5liXhGSxJttjLOgDEZxe-50" target="5liXhGSxJttjLOgDEZxe-51">
          <mxGeometry relative="1" as="geometry" />
        </mxCell>
        <mxCell id="5liXhGSxJttjLOgDEZxe-50" value="Task Name&amp;nbsp;&lt;div&gt;print (priority, status , due date)&lt;/div&gt;&lt;div&gt;edit= input&lt;/div&gt;" style="shape=parallelogram;html=1;strokeWidth=2;perimeter=parallelogramPerimeter;whiteSpace=wrap;rounded=1;arcSize=12;size=0.23;" vertex="1" parent="1">
          <mxGeometry x="90" y="1070" width="240" height="90" as="geometry" />
        </mxCell>
        <mxCell id="5liXhGSxJttjLOgDEZxe-54" value="" style="edgeStyle=orthogonalEdgeStyle;rounded=0;orthogonalLoop=1;jettySize=auto;html=1;entryX=1;entryY=0.5;entryDx=0;entryDy=0;" edge="1" parent="1" source="5liXhGSxJttjLOgDEZxe-51" target="5liXhGSxJttjLOgDEZxe-67">
          <mxGeometry relative="1" as="geometry">
            <mxPoint x="40" y="1290.0000000000002" as="targetPoint" />
            <Array as="points">
              <mxPoint x="91" y="1290" />
              <mxPoint x="-12" y="1291" />
            </Array>
          </mxGeometry>
        </mxCell>
        <mxCell id="5liXhGSxJttjLOgDEZxe-55" value="priority" style="edgeLabel;html=1;align=center;verticalAlign=middle;resizable=0;points=[];" vertex="1" connectable="0" parent="5liXhGSxJttjLOgDEZxe-54">
          <mxGeometry x="-0.0049" y="-1" relative="1" as="geometry">
            <mxPoint as="offset" />
          </mxGeometry>
        </mxCell>
        <mxCell id="5liXhGSxJttjLOgDEZxe-99" value="" style="edgeStyle=orthogonalEdgeStyle;rounded=0;orthogonalLoop=1;jettySize=auto;html=1;" edge="1" parent="1" source="5liXhGSxJttjLOgDEZxe-51" target="5liXhGSxJttjLOgDEZxe-98">
          <mxGeometry relative="1" as="geometry" />
        </mxCell>
        <mxCell id="5liXhGSxJttjLOgDEZxe-102" value="status" style="edgeLabel;html=1;align=center;verticalAlign=middle;resizable=0;points=[];" vertex="1" connectable="0" parent="5liXhGSxJttjLOgDEZxe-99">
          <mxGeometry x="-0.1462" y="2" relative="1" as="geometry">
            <mxPoint as="offset" />
          </mxGeometry>
        </mxCell>
        <mxCell id="5liXhGSxJttjLOgDEZxe-126" value="" style="edgeStyle=orthogonalEdgeStyle;rounded=0;orthogonalLoop=1;jettySize=auto;html=1;" edge="1" parent="1" source="5liXhGSxJttjLOgDEZxe-51" target="5liXhGSxJttjLOgDEZxe-125">
          <mxGeometry relative="1" as="geometry" />
        </mxCell>
        <mxCell id="5liXhGSxJttjLOgDEZxe-127" value="due date" style="edgeLabel;html=1;align=center;verticalAlign=middle;resizable=0;points=[];" vertex="1" connectable="0" parent="5liXhGSxJttjLOgDEZxe-126">
          <mxGeometry x="-0.2692" y="-4" relative="1" as="geometry">
            <mxPoint x="5" y="-4" as="offset" />
          </mxGeometry>
        </mxCell>
        <mxCell id="5liXhGSxJttjLOgDEZxe-51" value="if edit" style="rhombus;whiteSpace=wrap;html=1;strokeWidth=2;rounded=1;arcSize=12;" vertex="1" parent="1">
          <mxGeometry x="210" y="1260" width="80" height="80" as="geometry" />
        </mxCell>
        <mxCell id="5liXhGSxJttjLOgDEZxe-69" value="" style="edgeStyle=orthogonalEdgeStyle;rounded=0;orthogonalLoop=1;jettySize=auto;html=1;" edge="1" parent="1" source="5liXhGSxJttjLOgDEZxe-67" target="5liXhGSxJttjLOgDEZxe-68">
          <mxGeometry relative="1" as="geometry" />
        </mxCell>
        <mxCell id="5liXhGSxJttjLOgDEZxe-67" value="priority(High, Medium, Low)" style="shape=parallelogram;html=1;strokeWidth=2;perimeter=parallelogramPerimeter;whiteSpace=wrap;rounded=1;arcSize=12;size=0.23;" vertex="1" parent="1">
          <mxGeometry x="-180" y="1260" width="210" height="80" as="geometry" />
        </mxCell>
        <mxCell id="5liXhGSxJttjLOgDEZxe-71" value="" style="edgeStyle=orthogonalEdgeStyle;rounded=0;orthogonalLoop=1;jettySize=auto;html=1;entryX=1;entryY=0.5;entryDx=0;entryDy=0;" edge="1" parent="1" source="5liXhGSxJttjLOgDEZxe-68" target="5liXhGSxJttjLOgDEZxe-70">
          <mxGeometry relative="1" as="geometry">
            <mxPoint x="-200" y="1460" as="targetPoint" />
          </mxGeometry>
        </mxCell>
        <mxCell id="5liXhGSxJttjLOgDEZxe-72" value="High" style="edgeLabel;html=1;align=center;verticalAlign=middle;resizable=0;points=[];" vertex="1" connectable="0" parent="5liXhGSxJttjLOgDEZxe-71">
          <mxGeometry x="-0.1368" y="3" relative="1" as="geometry">
            <mxPoint as="offset" />
          </mxGeometry>
        </mxCell>
        <mxCell id="5liXhGSxJttjLOgDEZxe-77" value="" style="edgeStyle=orthogonalEdgeStyle;rounded=0;orthogonalLoop=1;jettySize=auto;html=1;" edge="1" parent="1" source="5liXhGSxJttjLOgDEZxe-68" target="5liXhGSxJttjLOgDEZxe-76">
          <mxGeometry relative="1" as="geometry" />
        </mxCell>
        <mxCell id="5liXhGSxJttjLOgDEZxe-80" value="Low" style="edgeLabel;html=1;align=center;verticalAlign=middle;resizable=0;points=[];" vertex="1" connectable="0" parent="5liXhGSxJttjLOgDEZxe-77">
          <mxGeometry x="-0.1933" relative="1" as="geometry">
            <mxPoint as="offset" />
          </mxGeometry>
        </mxCell>
        <mxCell id="5liXhGSxJttjLOgDEZxe-78" value="" style="edgeStyle=orthogonalEdgeStyle;rounded=0;orthogonalLoop=1;jettySize=auto;html=1;" edge="1" parent="1" source="5liXhGSxJttjLOgDEZxe-68" target="5liXhGSxJttjLOgDEZxe-73">
          <mxGeometry relative="1" as="geometry" />
        </mxCell>
        <mxCell id="5liXhGSxJttjLOgDEZxe-79" value="Medium" style="edgeLabel;html=1;align=center;verticalAlign=middle;resizable=0;points=[];" vertex="1" connectable="0" parent="5liXhGSxJttjLOgDEZxe-78">
          <mxGeometry x="-0.1333" relative="1" as="geometry">
            <mxPoint as="offset" />
          </mxGeometry>
        </mxCell>
        <mxCell id="5liXhGSxJttjLOgDEZxe-81" style="edgeStyle=orthogonalEdgeStyle;rounded=0;orthogonalLoop=1;jettySize=auto;html=1;exitX=0;exitY=0;exitDx=0;exitDy=0;entryX=0;entryY=0.25;entryDx=0;entryDy=0;fillColor=#f8cecc;strokeColor=#b85450;" edge="1" parent="1" source="5liXhGSxJttjLOgDEZxe-68" target="5liXhGSxJttjLOgDEZxe-67">
          <mxGeometry relative="1" as="geometry">
            <mxPoint x="-180" y="1290" as="targetPoint" />
            <Array as="points">
              <mxPoint x="-219" y="1440" />
              <mxPoint x="-219" y="1290" />
              <mxPoint x="-157" y="1290" />
            </Array>
          </mxGeometry>
        </mxCell>
        <mxCell id="5liXhGSxJttjLOgDEZxe-84" value="&lt;font color=&quot;#ff0000&quot;&gt;Invalid&lt;/font&gt;" style="edgeLabel;html=1;align=center;verticalAlign=middle;resizable=0;points=[];" vertex="1" connectable="0" parent="5liXhGSxJttjLOgDEZxe-81">
          <mxGeometry x="0.1199" y="-3" relative="1" as="geometry">
            <mxPoint y="1" as="offset" />
          </mxGeometry>
        </mxCell>
        <mxCell id="5liXhGSxJttjLOgDEZxe-68" value="Priority" style="rhombus;whiteSpace=wrap;html=1;strokeWidth=2;rounded=1;arcSize=12;" vertex="1" parent="1">
          <mxGeometry x="-115" y="1420" width="80" height="80" as="geometry" />
        </mxCell>
        <mxCell id="5liXhGSxJttjLOgDEZxe-96" style="edgeStyle=orthogonalEdgeStyle;rounded=0;orthogonalLoop=1;jettySize=auto;html=1;entryX=0;entryY=0.5;entryDx=0;entryDy=0;" edge="1" parent="1" source="5liXhGSxJttjLOgDEZxe-70" target="5liXhGSxJttjLOgDEZxe-50">
          <mxGeometry relative="1" as="geometry">
            <mxPoint x="-290" y="1120" as="targetPoint" />
            <Array as="points">
              <mxPoint x="-290" y="1265" />
              <mxPoint x="-289" y="1120" />
            </Array>
          </mxGeometry>
        </mxCell>
        <mxCell id="5liXhGSxJttjLOgDEZxe-70" value="Set Priority to High" style="rounded=1;whiteSpace=wrap;html=1;absoluteArcSize=1;arcSize=14;strokeWidth=2;" vertex="1" parent="1">
          <mxGeometry x="-340" y="1410" width="100" height="100" as="geometry" />
        </mxCell>
        <mxCell id="5liXhGSxJttjLOgDEZxe-117" style="edgeStyle=orthogonalEdgeStyle;rounded=0;orthogonalLoop=1;jettySize=auto;html=1;entryX=0;entryY=0.25;entryDx=0;entryDy=0;" edge="1" parent="1" source="5liXhGSxJttjLOgDEZxe-73" target="5liXhGSxJttjLOgDEZxe-50">
          <mxGeometry relative="1" as="geometry">
            <mxPoint x="-370" y="1110" as="targetPoint" />
            <Array as="points">
              <mxPoint x="-369" y="1630" />
              <mxPoint x="-369" y="1109" />
            </Array>
          </mxGeometry>
        </mxCell>
        <mxCell id="5liXhGSxJttjLOgDEZxe-73" value="Set Priority to Medium" style="rounded=1;whiteSpace=wrap;html=1;absoluteArcSize=1;arcSize=14;strokeWidth=2;" vertex="1" parent="1">
          <mxGeometry x="-125" y="1580" width="100" height="100" as="geometry" />
        </mxCell>
        <mxCell id="5liXhGSxJttjLOgDEZxe-76" value="Set Priority to Low" style="rounded=1;whiteSpace=wrap;html=1;absoluteArcSize=1;arcSize=14;strokeWidth=2;" vertex="1" parent="1">
          <mxGeometry x="50" y="1410" width="100" height="100" as="geometry" />
        </mxCell>
        <mxCell id="5liXhGSxJttjLOgDEZxe-94" value="Stop" style="strokeWidth=2;html=1;shape=mxgraph.flowchart.start_1;whiteSpace=wrap;" vertex="1" parent="1">
          <mxGeometry x="520" y="980" width="100" height="60" as="geometry" />
        </mxCell>
        <mxCell id="5liXhGSxJttjLOgDEZxe-104" value="" style="edgeStyle=orthogonalEdgeStyle;rounded=0;orthogonalLoop=1;jettySize=auto;html=1;" edge="1" parent="1" source="5liXhGSxJttjLOgDEZxe-98" target="5liXhGSxJttjLOgDEZxe-103">
          <mxGeometry relative="1" as="geometry" />
        </mxCell>
        <mxCell id="5liXhGSxJttjLOgDEZxe-98" value="status (todo, pending, done)&lt;div&gt;or cancel&lt;/div&gt;" style="shape=parallelogram;html=1;strokeWidth=2;perimeter=parallelogramPerimeter;whiteSpace=wrap;rounded=1;arcSize=12;size=0.23;" vertex="1" parent="1">
          <mxGeometry x="190" y="1420" width="210" height="110" as="geometry" />
        </mxCell>
        <mxCell id="5liXhGSxJttjLOgDEZxe-109" value="" style="edgeStyle=orthogonalEdgeStyle;rounded=0;orthogonalLoop=1;jettySize=auto;html=1;" edge="1" parent="1" source="5liXhGSxJttjLOgDEZxe-103" target="5liXhGSxJttjLOgDEZxe-108">
          <mxGeometry relative="1" as="geometry" />
        </mxCell>
        <mxCell id="5liXhGSxJttjLOgDEZxe-110" value="todo" style="edgeLabel;html=1;align=center;verticalAlign=middle;resizable=0;points=[];" vertex="1" connectable="0" parent="5liXhGSxJttjLOgDEZxe-109">
          <mxGeometry x="-0.1498" y="-2" relative="1" as="geometry">
            <mxPoint as="offset" />
          </mxGeometry>
        </mxCell>
        <mxCell id="5liXhGSxJttjLOgDEZxe-120" value="" style="edgeStyle=orthogonalEdgeStyle;rounded=0;orthogonalLoop=1;jettySize=auto;html=1;" edge="1" parent="1" source="5liXhGSxJttjLOgDEZxe-103" target="5liXhGSxJttjLOgDEZxe-118">
          <mxGeometry relative="1" as="geometry" />
        </mxCell>
        <mxCell id="5liXhGSxJttjLOgDEZxe-122" value="pending" style="edgeLabel;html=1;align=center;verticalAlign=middle;resizable=0;points=[];" vertex="1" connectable="0" parent="5liXhGSxJttjLOgDEZxe-120">
          <mxGeometry x="-0.1324" y="-1" relative="1" as="geometry">
            <mxPoint y="1" as="offset" />
          </mxGeometry>
        </mxCell>
        <mxCell id="5liXhGSxJttjLOgDEZxe-121" value="" style="edgeStyle=orthogonalEdgeStyle;rounded=0;orthogonalLoop=1;jettySize=auto;html=1;" edge="1" parent="1" source="5liXhGSxJttjLOgDEZxe-103" target="5liXhGSxJttjLOgDEZxe-119">
          <mxGeometry relative="1" as="geometry" />
        </mxCell>
        <mxCell id="5liXhGSxJttjLOgDEZxe-123" value="done" style="edgeLabel;html=1;align=center;verticalAlign=middle;resizable=0;points=[];" vertex="1" connectable="0" parent="5liXhGSxJttjLOgDEZxe-121">
          <mxGeometry x="-0.0329" y="1" relative="1" as="geometry">
            <mxPoint as="offset" />
          </mxGeometry>
        </mxCell>
        <mxCell id="5liXhGSxJttjLOgDEZxe-103" value="if status" style="rhombus;whiteSpace=wrap;html=1;strokeWidth=2;rounded=1;arcSize=12;" vertex="1" parent="1">
          <mxGeometry x="255" y="1625" width="80" height="80" as="geometry" />
        </mxCell>
        <mxCell id="5liXhGSxJttjLOgDEZxe-108" value="update status to todo" style="rounded=1;whiteSpace=wrap;html=1;absoluteArcSize=1;arcSize=14;strokeWidth=2;" vertex="1" parent="1">
          <mxGeometry x="90" y="1615" width="100" height="100" as="geometry" />
        </mxCell>
        <mxCell id="5liXhGSxJttjLOgDEZxe-116" style="edgeStyle=orthogonalEdgeStyle;rounded=0;orthogonalLoop=1;jettySize=auto;html=1;entryX=0.044;entryY=1.036;entryDx=0;entryDy=0;entryPerimeter=0;" edge="1" parent="1" source="5liXhGSxJttjLOgDEZxe-76" target="5liXhGSxJttjLOgDEZxe-50">
          <mxGeometry relative="1" as="geometry" />
        </mxCell>
        <mxCell id="5liXhGSxJttjLOgDEZxe-118" value="update status to pending" style="rounded=1;whiteSpace=wrap;html=1;absoluteArcSize=1;arcSize=14;strokeWidth=2;" vertex="1" parent="1">
          <mxGeometry x="245" y="1780" width="100" height="100" as="geometry" />
        </mxCell>
        <mxCell id="5liXhGSxJttjLOgDEZxe-119" value="update status to done" style="rounded=1;whiteSpace=wrap;html=1;absoluteArcSize=1;arcSize=14;strokeWidth=2;" vertex="1" parent="1">
          <mxGeometry x="410" y="1615" width="100" height="100" as="geometry" />
        </mxCell>
        <mxCell id="5liXhGSxJttjLOgDEZxe-132" value="" style="edgeStyle=orthogonalEdgeStyle;rounded=0;orthogonalLoop=1;jettySize=auto;html=1;" edge="1" parent="1" source="5liXhGSxJttjLOgDEZxe-125" target="5liXhGSxJttjLOgDEZxe-131">
          <mxGeometry relative="1" as="geometry" />
        </mxCell>
        <mxCell id="5liXhGSxJttjLOgDEZxe-125" value="due_date(dd/mm/yyyy)" style="shape=parallelogram;html=1;strokeWidth=2;perimeter=parallelogramPerimeter;whiteSpace=wrap;rounded=1;arcSize=12;size=0.23;" vertex="1" parent="1">
          <mxGeometry x="492.5" y="1245" width="215" height="110" as="geometry" />
        </mxCell>
        <mxCell id="5liXhGSxJttjLOgDEZxe-137" style="edgeStyle=orthogonalEdgeStyle;rounded=0;orthogonalLoop=1;jettySize=auto;html=1;entryX=1;entryY=0.5;entryDx=0;entryDy=0;" edge="1" parent="1" source="5liXhGSxJttjLOgDEZxe-128" target="5liXhGSxJttjLOgDEZxe-50">
          <mxGeometry relative="1" as="geometry">
            <mxPoint x="860" y="1120" as="targetPoint" />
            <Array as="points">
              <mxPoint x="861" y="1675" />
              <mxPoint x="861" y="1120" />
              <mxPoint x="302" y="1120" />
            </Array>
          </mxGeometry>
        </mxCell>
        <mxCell id="5liXhGSxJttjLOgDEZxe-128" value="update due_date" style="rounded=1;whiteSpace=wrap;html=1;absoluteArcSize=1;arcSize=14;strokeWidth=2;" vertex="1" parent="1">
          <mxGeometry x="550" y="1625" width="100" height="100" as="geometry" />
        </mxCell>
        <mxCell id="5liXhGSxJttjLOgDEZxe-133" value="" style="edgeStyle=orthogonalEdgeStyle;rounded=0;orthogonalLoop=1;jettySize=auto;html=1;" edge="1" parent="1" source="5liXhGSxJttjLOgDEZxe-131" target="5liXhGSxJttjLOgDEZxe-128">
          <mxGeometry relative="1" as="geometry" />
        </mxCell>
        <mxCell id="5liXhGSxJttjLOgDEZxe-134" value="Yes" style="edgeLabel;html=1;align=center;verticalAlign=middle;resizable=0;points=[];" vertex="1" connectable="0" parent="5liXhGSxJttjLOgDEZxe-133">
          <mxGeometry x="-0.1766" relative="1" as="geometry">
            <mxPoint as="offset" />
          </mxGeometry>
        </mxCell>
        <mxCell id="5liXhGSxJttjLOgDEZxe-135" style="edgeStyle=orthogonalEdgeStyle;rounded=0;orthogonalLoop=1;jettySize=auto;html=1;exitX=1;exitY=0.5;exitDx=0;exitDy=0;entryX=1;entryY=0.75;entryDx=0;entryDy=0;" edge="1" parent="1" source="5liXhGSxJttjLOgDEZxe-131" target="5liXhGSxJttjLOgDEZxe-125">
          <mxGeometry relative="1" as="geometry">
            <mxPoint x="770" y="1310" as="targetPoint" />
            <Array as="points">
              <mxPoint x="771" y="1490" />
              <mxPoint x="771" y="1310" />
              <mxPoint x="674" y="1310" />
            </Array>
          </mxGeometry>
        </mxCell>
        <mxCell id="5liXhGSxJttjLOgDEZxe-136" value="No" style="edgeLabel;html=1;align=center;verticalAlign=middle;resizable=0;points=[];" vertex="1" connectable="0" parent="5liXhGSxJttjLOgDEZxe-135">
          <mxGeometry x="-0.6737" y="1" relative="1" as="geometry">
            <mxPoint as="offset" />
          </mxGeometry>
        </mxCell>
        <mxCell id="5liXhGSxJttjLOgDEZxe-131" value="due_date correct?" style="rhombus;whiteSpace=wrap;html=1;strokeWidth=2;rounded=1;arcSize=12;" vertex="1" parent="1">
          <mxGeometry x="560" y="1450" width="80" height="80" as="geometry" />
        </mxCell>
      </root>
    </mxGraphModel>
  </diagram>
</mxfile>
